<?xml version="1.0" encoding="utf-8"?>
<!-- Generator: Adobe Illustrator 16.0.0, SVG Export Plug-In . SVG Version: 6.00 Build 0)  -->
<!DOCTYPE svg PUBLIC "-//W3C//DTD SVG 1.1//EN" "http://www.w3.org/Graphics/SVG/1.1/DTD/svg11.dtd">
<svg version="1.1" xmlns="http://www.w3.org/2000/svg" xmlns:xlink="http://www.w3.org/1999/xlink" x="0px" y="0px" width="30px"
	 height="30px" viewBox="0 0 30 30" enable-background="new 0 0 30 30" xml:space="preserve">
<g id="Слой_6" display="none">
</g>
<g id="Слой_7" display="none">
</g>
<g id="Слой_10" display="none">
</g>
<g id="Слой_12" display="none">
</g>
<g id="log_in">
</g>
<g id="log_out">
</g>
<g id="archive">
</g>
<g id="edit">
</g>
<g id="ajouter">
</g>
<g id="Слой_8">
	<g>
		<g>
			<path fill="#010101" d="M14.875,2.465c6.938,0,12.583,5.645,12.583,12.583c0,6.938-5.645,12.583-12.583,12.583
				S2.292,21.986,2.292,15.048C2.292,8.11,7.937,2.465,14.875,2.465 M14.875,1.048c-7.731,0-14,6.269-14,14c0,7.731,6.269,14,14,14
				s14-6.27,14-14C28.875,7.317,22.606,1.048,14.875,1.048L14.875,1.048z"/>
		</g>
		<g>
			<g>
				<path fill="#010101" d="M14.875,6.403c2.113,0,3.833,1.72,3.833,3.833s-1.72,3.833-3.833,3.833s-3.833-1.72-3.833-3.833
					S12.762,6.403,14.875,6.403 M14.875,4.986c-2.899,0-5.25,2.351-5.25,5.25s2.351,5.25,5.25,5.25s5.25-2.351,5.25-5.25
					S17.774,4.986,14.875,4.986L14.875,4.986z"/>
			</g>
		</g>
		<g>
			<path fill="#010101" d="M14.875,17.777c2.705,0,5.242,1.199,6.96,3.25c-1.718,2.051-4.255,3.25-6.96,3.25s-5.242-1.199-6.96-3.25
				C9.633,18.977,12.17,17.777,14.875,17.777 M14.875,16.361c-3.641,0-6.846,1.854-8.729,4.666c1.884,2.814,5.089,4.668,8.729,4.668
				s6.846-1.854,8.729-4.668C21.721,18.215,18.516,16.361,14.875,16.361L14.875,16.361z"/>
		</g>
	</g>
</g>
<g id="Слой_9">
</g>
<g id="Слой_11">
</g>
</svg>
